# xmcd
#
# Track frame offsets: 
#        150
#        15549
#        36499
#        49230
#        64883
#
# Disc length: 1072 seconds
#
# Revision: 1
# Processed by: cddbd v1.5.2PL0 Copyright (c) Steve Scherf et al.
# Submitted via: ExactAudioCopyFreeDBPlugin 1.0
#
DISCID=41042e05
DTITLE=Maia Hirasawa - Boom!
DYEAR=2011
DGENRE=Pop
TTITLE0=Boom!
TTITLE1=Here I am
TTITLE2=It Doesn't Stop [Cornelius Remix]
TTITLE3=Hush Now [Acorstic Ver.]
TTITLE4=Because Of You
EXTD=
EXTT0=
EXTT1=
EXTT2=
EXTT3=
EXTT4=
PLAYORDER=
